<svg xmlns="http://www.w3.org/2000/svg" viewBox="0 0 80 97"><defs><style>.cls-1{fill:#211915;}</style></defs><title>acuatico</title><g id="Layer_6" data-name="Layer 6"><path class="cls-1" d="M61.73,40.15V54.52L40.07,44.09l-20.8,10v-14A2.13,2.13,0,0,1,21.4,38H59.6A2.13,2.13,0,0,1,61.73,40.15Z"/><path class="cls-1" d="M8,62.29l32.07-15.6L73,62.29,62.6,92.45a48.56,48.56,0,0,1-10.4-1.73c-9.53-2.6-25.54-7.14-34.67-.7Z"/><path class="cls-1" d="M53.07,34v1.44H27.93V34a2,2,0,0,1,2-2h5.4l1.24-8.67h7.8L45.27,32H51A2,2,0,0,1,53.07,34Z"/><path class="cls-1" d="M41.37,18.75a2.28,2.28,0,0,1-4.56,0,2,2,0,0,1,.08-.61,3.24,3.24,0,0,1-1,.16,3.62,3.62,0,0,1-2.93-1.49,6,6,0,0,1-2.54.57,5.26,5.26,0,0,1-5.48-5,5.26,5.26,0,0,1,5.48-5A5.42,5.42,0,0,1,35.64,11h.21A3.64,3.64,0,0,1,39,16.47h.09A2.29,2.29,0,0,1,41.37,18.75Z"/></g></svg>