<svg xmlns="http://www.w3.org/2000/svg" viewBox="0 0 97 125"><title>acuatico</title><g id="paleta_de_coloresv" data-name="paleta de coloresv"><path d="M31.68,18.9a5.89,5.89,0,0,1,11.57-1.57l.24,0a4.43,4.43,0,0,1,4.43,4.43,4.5,4.5,0,0,1-.33,1.69h0a2.75,2.75,0,1,1-2.75,2.75,1.94,1.94,0,0,1,0-.24,4.31,4.31,0,0,1-5-1.61,5.91,5.91,0,0,1-8.22-5.43Zm2.69,29.17H26.26a2.57,2.57,0,0,0-2.57,2.57V67.83l25.16-12L74,67.83V50.64a2.57,2.57,0,0,0-2.57-2.57H63.34m0-2.42V44a2.57,2.57,0,0,0-2.57-2.57H54.55l-1.11-10.2H44.32l-1.11,10.2H36.94A2.57,2.57,0,0,0,34.37,44v1.64Zm-14.49,13L11.5,76.54,22.56,108.8c5.14-2.39,11.73-4.62,18.5-4.62,10.86,0,19.6,5.18,31.07,7.82H74L86.19,76.54Z"/></g></svg>