<svg xmlns="http://www.w3.org/2000/svg" width="159" height="109" viewBox="0 0 159 109"><defs><style>.cls-1{isolation:isolate;}.cls-2{fill:#e1e3e2;}.cls-3{fill:gray;}.cls-4{opacity:0.75;mix-blend-mode:multiply;}.cls-5{fill:#fec01c;}</style></defs><title>DataLovers</title><g class="cls-1"><g id="paleta_de_coloresv" data-name="paleta de coloresv"><polygon class="cls-2" points="9.49 32.24 117.92 9.83 150.45 40.19 128.04 86.45 9.49 108.14 9.49 32.24"/><path class="cls-3" d="M10.26,32.87v74.35L127.52,85.77l22-45.4-31.82-29.7Z"/><g class="cls-4"><path d="M123,53.11c-1-4-5.87-2.85-5.7-3s-5.54-14.43-5.54-14.43c-2.76-3.55-13.18-4.11-17.53-4.18v-.09s-15.93-.34-19.45,4.19c0,0-5.71,14.26-5.54,14.42s-4.69-1-5.7,3c-1.51,4.87,3.19,3.53,3.19,3.53s-.34,1.5-.51,2.68,0,20.13,0,20.13.17,2.18,2.18,2.18h8.56a3,3,0,0,0,1.67-2.85,21.22,21.22,0,0,1,0-3.53H92.25v.09h15.6a19.89,19.89,0,0,1,0,3.52,3,3,0,0,0,1.68,2.85h8.55c2,0,2.18-2.18,2.18-2.18s.17-18.95,0-20.13-.5-2.68-.5-2.68S124.46,58,123,53.11ZM80.3,65.85c-1.68.87-5.89.27-7.74,0-3.29-.46-3.41-2.25-3.28-5.21C70.1,55.8,85.41,63.21,80.3,65.85ZM73.8,50.93s2.69-9.06,3-9.73A6,6,0,0,1,80,37.34c1.88-.88,8.82-1.1,12.24-1.15v.06s11.66,0,14.18,1.17a6,6,0,0,1,3.18,3.86c.34.67,3,9.73,3,9.73a119.17,119.17,0,0,1-18.45,2.51v-.08C86,53.61,73.8,50.93,73.8,50.93Zm40.08,15c-1.85.26-6.06.87-7.74,0-5.11-2.64,10.2-10.06,11-5.2C117.28,63.69,117.17,65.48,113.88,65.94Z"/></g><path class="cls-5" d="M123.76,51.49c-1-4-5.87-2.86-5.7-3S112.52,34,112.52,34c-2.76-3.55-13.18-4.11-17.53-4.18v-.09S79.06,29.43,75.54,34c0,0-5.71,14.26-5.54,14.42s-4.69-1-5.7,3c-1.51,4.87,3.19,3.52,3.19,3.52s-.34,1.51-.51,2.69,0,20.13,0,20.13.17,2.18,2.18,2.18h8.56a3,3,0,0,0,1.67-2.86,21.12,21.12,0,0,1,0-3.52H93.06v.09h15.6a19.89,19.89,0,0,1,0,3.52A3,3,0,0,0,110.34,80h8.55c2,0,2.19-2.18,2.19-2.18s.16-18.95,0-20.13-.51-2.68-.51-2.68S125.27,56.35,123.76,51.49ZM81.11,64.23c-1.68.87-5.89.27-7.74,0C70.08,63.78,70,62,70.09,59,70.91,54.18,86.22,61.59,81.11,64.23Zm-6.5-14.92s2.69-9.06,3-9.73a6,6,0,0,1,3.19-3.86c1.88-.88,8.82-1.1,12.24-1.15v.06s11.66,0,14.18,1.17a6,6,0,0,1,3.18,3.86c.34.67,3,9.73,3,9.73A119.17,119.17,0,0,1,95,51.9v-.08C86.77,52,74.61,49.31,74.61,49.31Zm40.08,15c-1.85.26-6.06.87-7.74,0-5.11-2.64,10.2-10.06,11-5.2C118.09,62.07,118,63.86,114.69,64.32Z"/></g></g></svg>