<svg id="Layer_3" data-name="Layer 3" xmlns="http://www.w3.org/2000/svg" width="1500" height="1060" viewBox="0 0 1500 1060"><defs><style>.cls-1,.cls-10,.cls-11,.cls-2,.cls-8,.cls-9{fill:none;stroke:#000;stroke-miterlimit:10;}.cls-1{stroke-width:5px;}.cls-2{stroke-width:1.5px;}.cls-3{font-size:35px;font-family:Rakkas-Regular, Rakkas;}.cls-4{letter-spacing:-0.02em;}.cls-5{letter-spacing:0em;}.cls-6{font-size:32px;}.cls-12,.cls-6,.cls-7{font-family:OpenSans-ExtraBold, Open Sans;font-weight:800;}.cls-7{font-size:29px;}.cls-8{stroke-width:6px;}.cls-9{stroke-width:2.6px;}.cls-10{stroke-width:2.89px;}.cls-11{stroke-width:2px;}.cls-12{font-size:33.78px;}</style></defs><title>DataLovers</title><rect class="cls-1" x="950.61" y="225" width="193.58" height="69.51" rx="34.76"/><rect class="cls-1" x="1164.42" y="225" width="193.58" height="69.51" rx="34.76"/><rect class="cls-1" x="728" y="225" width="193.58" height="69.51" rx="34.76"/><ellipse class="cls-2" cx="204" cy="259.5" rx="54" ry="39.5"/><text class="cls-3" transform="translate(169.54 266.32)">Lo<tspan class="cls-4" x="36.19" y="0">g</tspan><tspan class="cls-5" x="51.94" y="0">o</tspan></text><text class="cls-6" transform="translate(776.54 269.32)">Datos</text><text class="cls-6" transform="translate(981.54 269.32)">Gráficos</text><text class="cls-7" transform="translate(1187.54 269.32)">Acerca de</text><rect class="cls-8" x="105.5" y="162.5" width="1289" height="735"/><rect class="cls-9" x="150.13" y="452" width="569.87" height="270.13"/><rect class="cls-10" x="149.5" y="452.37" width="190.17" height="270.13"/><rect class="cls-10" x="339.67" y="452.37" width="190.17" height="270.13"/><rect class="cls-10" x="529.83" y="452.37" width="190.17" height="270.13"/><line class="cls-11" x1="149.5" y1="517.45" x2="720" y2="517.45"/><circle class="cls-11" cx="1056.5" cy="573.5" r="145"/><line class="cls-11" x1="1005.05" y1="437.94" x2="1107.77" y2="708.59"/><line class="cls-11" x1="920.94" y1="624.95" x2="1192.06" y2="522.05"/><text class="cls-12" transform="translate(283.54 232.27)">Personas heridas<tspan x="0" y="36.53">por medio de transporte</tspan><tspan x="0" y="73.06">en EEUU</tspan></text><text class="cls-7" transform="translate(218.01 496.27)">Año</text></svg>