<svg xmlns="http://www.w3.org/2000/svg" viewBox="0 0 184 104"><defs><style>.cls-1{fill:#58aee0;}.cls-2{fill:#303b8c;}.cls-3{fill:#fec01c;}.cls-4{fill:#fff;}.cls-5{fill:#211915;}</style></defs><title>dataLoversLogo</title><g id="Layer_3" data-name="Layer 3"><path class="cls-1" d="M-2,0H96.38C95.52,11.4,87.83,35.41,44,62,21,76,6.75,85.26-2,91.38Z"/><path class="cls-2" d="M184,34.4v69.25C160.57,92,125,72.56,111,55.3c0,0,15-5.3,25-4.3,10.15,1,20,12,28,4C168.55,50.45,177.3,41.38,184,34.4Z"/><path class="cls-1" d="M206,114,71,135l-87-32s-.39-1.55,14-11.62V106H184v-2.35C196.82,110,206,114,206,114Z"/><path class="cls-1" d="M184,0V34.4C176,46,169.55,51.45,165,56c-8,8-18.85-4-29-5-10-1-25,4.3-25,4.3h0c-5.67-7-7.76-13.67-4-19.29,11-16.48,4.47-28.85-2.28-36Z"/></g><g id="Layer_5" data-name="Layer 5"><rect class="cls-3" x="61" y="61" width="45" height="13"/></g><g id="Layer_4" data-name="Layer 4"><polygon points="186 104 -2 104 59 80 109 80 186 104"/><polygon class="cls-4" points="80 90 86 90 91 97 73 97 80 90"/><path class="cls-4" d="M51.1,32.29C41.29,38,31.67,42.91,20.38,45c-11.89,2.18-22.82.73-34.63-.94a.32.32,0,0,0-.17.61c20.13,8.06,49.51,1.93,65.74-12.08.17-.14,0-.4-.22-.29Z"/><path class="cls-4" d="M44.81,25.19C35,26.61,25.65,29.66,15.59,29.13,6.21,28.64-.69,25-8.13,19.56c-.31-.23-.75.22-.53.53,4.54,6.55,13.55,9.44,21.11,10.34C23.1,31.7,35,29.38,44.92,25.61a.22.22,0,0,0-.11-.42Z"/></g><g id="paleta_de_coloresv" data-name="paleta de coloresv"><path class="cls-5" d="M35.33,23.49A4.15,4.15,0,0,1,37,22.82c.67,0,6.7,2.34,7,2.34S65.83,14.78,66.5,14.44s5.27-.81,6.36,1c1.51,2.51-10,7-10,7L58.43,34.9l-2.49,1.44a.43.43,0,0,1-.64-.4c.21-2.88-.08-9-.36-9.27s-10.56,3.52-12.23,3.52-7.38-6.37-7.38-6.37"/><path class="cls-5" d="M44.19,16.26l1.8-1a1.54,1.54,0,0,1,1.19-.13l8.09,2.49-6,3L44.14,17A.46.46,0,0,1,44.19,16.26Z"/><path class="cls-5" d="M110.77,58.46c-.9-3.61-5.26-2.55-5.11-2.7s-5-12.92-5-12.92C98.23,39.65,88.9,39.15,85,39.09V39s-14.27-.31-17.43,3.75c0,0-5.11,12.77-5,12.92s-4.2-.9-5.11,2.71c-1.35,4.35,2.86,3.15,2.86,3.15s-.3,1.35-.45,2.4,0,18,0,18,.15,2,1.95,2h7.66A2.66,2.66,0,0,0,71,81.37a18,18,0,0,1,0-3.15H83.28v.07h14a18.14,18.14,0,0,1,0,3.16A2.66,2.66,0,0,0,98.75,84h7.67c1.8,0,2-2,2-2s.15-17,0-18-.45-2.4-.45-2.4S112.12,62.82,110.77,58.46ZM72.57,69.88c-1.5.78-5.27.23-6.93,0-3-.41-3-2-2.94-4.66C63.43,60.87,77.15,67.51,72.57,69.88ZM66.75,56.51s2.41-8.12,2.71-8.72a5.36,5.36,0,0,1,2.85-3.45c1.68-.79,7.9-1,11-1v.06s10.44,0,12.69,1a5.38,5.38,0,0,1,2.86,3.46c.3.6,2.7,8.71,2.7,8.71A105.76,105.76,0,0,1,85,58.83v-.07C77.65,58.91,66.75,56.51,66.75,56.51ZM102.65,70c-1.66.24-5.43.78-6.94,0-4.57-2.36,9.14-9,9.88-4.65C105.7,67.94,105.59,69.54,102.65,70Z"/><path class="cls-5" d="M130.39,20.85a2.12,2.12,0,0,1,4.18-.5h.09A1.61,1.61,0,0,1,136.23,22a1.5,1.5,0,0,1-.13.6h0a1,1,0,1,1-1,1s0-.06,0-.09a1.64,1.64,0,0,1-.5.08,1.59,1.59,0,0,1-1.28-.69,2.12,2.12,0,0,1-2.93-2Zm.8,10.54-2.93-.05a.93.93,0,0,0-.94.91l-.1,6.2,9.15-4.2,9,4.49.1-6.2a.93.93,0,0,0-.91-.94l-2.93,0m0-.88v-.59a.93.93,0,0,0-.91-.94l-2.24,0-.34-3.68-3.29-.06L134.42,29l-2.27,0a.93.93,0,0,0-.94.91v.59Zm-5.3,4.61-13.58,6.23,3.81,11.7a16.22,16.22,0,0,1,6.69-1.55c3.92.06,7,2,11.17,3h.69L149.72,42Z"/><path class="cls-4" d="M118,54.64a36.14,36.14,0,0,1,20.44-1.1c5.53,1.34,10,5,15.37,6.58,6.23,1.82,17.52-2,16.69-10.07,0-.41-.58-.76-.91-.37-3.39,4-5.69,8.61-11.81,8.72-5.38.1-10-3.8-14.92-5.57a33.6,33.6,0,0,0-25.17,1.07c-.42.18-.12.89.31.74Z"/></g></svg>