<svg xmlns="http://www.w3.org/2000/svg" width="100" height="100" viewBox="0 0 100 100"><defs><style>.cls-1{fill:#424242;}</style></defs><title>DataLovers</title><g id="paleta_de_coloresv" data-name="paleta de coloresv"><path class="cls-1" d="M86.69,45.81c-1.24-5-7.25-3.52-7-3.72s-6.83-17.8-6.83-17.8c-3.41-4.39-16.26-5.08-21.63-5.17V19s-19.66-.42-24,5.17c0,0-7,17.6-6.83,17.8s-5.8-1.24-7,3.73c-1.86,6,3.93,4.35,3.93,4.35s-.41,1.86-.62,3.31,0,24.84,0,24.84.21,2.69,2.69,2.69H29.87a3.68,3.68,0,0,0,2.07-3.52,24.56,24.56,0,0,1,0-4.35H48.81v.1H68.06a24.6,24.6,0,0,1,0,4.35A3.66,3.66,0,0,0,70.13,81H80.69c2.48,0,2.69-2.69,2.69-2.69s.2-23.39,0-24.84-.62-3.31-.62-3.31S88.55,51.81,86.69,45.81ZM34.06,61.54c-2.08,1.08-7.27.33-9.55,0-4.06-.57-4.21-2.78-4.06-6.42C21.46,49.14,40.36,58.28,34.06,61.54ZM26,43.12s3.31-11.18,3.73-12,.82-3.32,3.93-4.77C36,25.27,44.59,25,48.81,24.93V25S63.2,25,66.3,26.46s3.52,3.93,3.93,4.76,3.73,12,3.73,12-12.82,2.83-22.77,3.1v-.09C41.05,46.43,26,43.12,26,43.12ZM75.49,61.65c-2.28.32-7.47,1.07-9.55,0-6.3-3.26,12.6-12.41,13.61-6.42C79.7,58.87,79.55,61.08,75.49,61.65Z"/></g></svg>