<svg xmlns="http://www.w3.org/2000/svg" width="100" height="100" viewBox="0 0 100 100"><defs><style>.cls-1{fill:#424242;}</style></defs><title>DataLovers</title><g id="paleta_de_coloresv" data-name="paleta de coloresv"><path class="cls-1" d="M4.45,45.71s2.43-1.62,4.05-1.62,16.21,5.67,17,5.67S78.2,24.64,79.83,23.83s12.76-2,15.4,2.43c3.64,6.08-24.32,17-24.32,17l-10.6,30-6,3.49a1,1,0,0,1-1.53-1c.51-7-.2-21.74-.89-22.43s-25.53,8.51-29.58,8.51S4.45,46.52,4.45,46.52"/><path class="cls-1" d="M25.86,28.23l4.37-2.42a3.64,3.64,0,0,1,2.87-.3l19.57,6L38.08,38.82l-12.32-8.7A1.12,1.12,0,0,1,25.86,28.23Z"/></g></svg>