<svg xmlns="http://www.w3.org/2000/svg" width="100" height="100" viewBox="0 0 100 100"><defs><style>.cls-1{fill:#424242;}</style></defs><title>DataLovers</title><g id="Layer_6" data-name="Layer 6"><path class="cls-1" d="M72.41,41.35V56.17L50.05,45.4,28.59,55.74V41.35a2.2,2.2,0,0,1,2.2-2.2H70.21A2.2,2.2,0,0,1,72.41,41.35Z"/><path class="cls-1" d="M17,64.18,50.05,48.09,84,64.18,73.3,95.3a50.32,50.32,0,0,1-10.73-1.78c-9.83-2.69-26.35-7.37-35.77-.72Z"/><path class="cls-1" d="M63.47,35v1.48H37.53V35a2.1,2.1,0,0,1,2.1-2.09H45.2l1.28-8.95h8l.9,9h5.95A2.1,2.1,0,0,1,63.47,35Z"/><path class="cls-1" d="M51.39,19.26a2.35,2.35,0,0,1-4.7,0,2.18,2.18,0,0,1,.09-.63,3.53,3.53,0,0,1-1.08.16,3.73,3.73,0,0,1-3-1.53,6.18,6.18,0,0,1-2.62.59,5.44,5.44,0,0,1-5.66-5.18A5.44,5.44,0,0,1,40.06,7.5a5.58,5.58,0,0,1,5.42,3.77h.22A3.76,3.76,0,0,1,49,16.91H49A2.35,2.35,0,0,1,51.39,19.26Z"/></g></svg>