<svg xmlns="http://www.w3.org/2000/svg" width="159" height="109" viewBox="0 0 159 109"><defs><style>.cls-1{isolation:isolate;}.cls-2{fill:#e1e3e2;}.cls-3{fill:gray;}.cls-4{opacity:0.75;mix-blend-mode:multiply;}.cls-5{fill:#fec01c;}</style></defs><title>DataLovers</title><g class="cls-1"><g id="paleta_de_coloresv" data-name="paleta de coloresv"><polygon class="cls-2" points="9.49 32.24 117.92 9.83 150.45 40.19 128.04 86.45 9.49 108.14 9.49 32.24"/><path class="cls-3" d="M10.26,32.87v74.35L127.52,85.77l22-45.4-31.82-29.7Z"/><g class="cls-4"><path d="M34.45,55.71s2.43-1.62,4-1.62,16.21,5.67,17,5.67,52.68-25.12,54.31-25.93,12.76-2,15.4,2.43c3.64,6.08-24.32,17-24.32,17l-10.6,30-6,3.49a1,1,0,0,1-1.53-1c.51-7-.2-21.74-.89-22.43s-25.53,8.51-29.58,8.51-17.83-15.4-17.83-15.4"/></g><path class="cls-5" d="M33.45,54.71s2.43-1.62,4-1.62,16.21,5.67,17,5.67,52.68-25.12,54.31-25.93,12.76-2,15.4,2.43c3.64,6.08-24.32,17-24.32,17l-10.6,30-6,3.49a1,1,0,0,1-1.53-1c.51-7-.2-21.74-.89-22.43s-25.53,8.51-29.58,8.51-17.83-15.4-17.83-15.4"/><g class="cls-4"><path d="M53.86,37.23l4.37-2.42a3.64,3.64,0,0,1,2.87-.3l19.57,6L66.08,47.82l-12.32-8.7A1.12,1.12,0,0,1,53.86,37.23Z"/></g><path class="cls-5" d="M54.86,37.23l4.37-2.42a3.64,3.64,0,0,1,2.87-.3l19.57,6L67.08,47.82l-12.32-8.7A1.12,1.12,0,0,1,54.86,37.23Z"/></g></g></svg>