<svg xmlns="http://www.w3.org/2000/svg" width="159" height="109" viewBox="0 0 159 109"><defs><style>.cls-1{isolation:isolate;}.cls-2{fill:#e1e3e2;}.cls-3{fill:gray;}.cls-4{opacity:0.75;mix-blend-mode:multiply;}.cls-5{fill:#fec01c;}</style></defs><title>DataLovers</title><g class="cls-1"><g id="paleta_de_coloresv" data-name="paleta de coloresv"><polygon class="cls-2" points="9.49 32.24 117.92 9.83 150.45 40.19 128.04 86.45 9.49 108.14 9.49 32.24"/><path class="cls-3" d="M10.26,32.87v74.35L127.52,85.77l22-45.4-31.82-29.7Z"/><g class="cls-4"><path d="M115.67,44.82V56.24L98.45,48l-16.53,8V44.82a1.7,1.7,0,0,1,1.7-1.69H114A1.7,1.7,0,0,1,115.67,44.82Z"/><path d="M73,62.41,98.45,50l26.17,12.39-8.26,24A38.49,38.49,0,0,1,108.09,85c-7.57-2.06-20.29-5.67-27.54-.55Z"/><path d="M108.78,39.92v1.14h-20V39.92a1.61,1.61,0,0,1,1.61-1.61h4.29l1-6.89h6.2l.68,6.89h4.59A1.61,1.61,0,0,1,108.78,39.92Z"/><path d="M99.49,27.81a1.82,1.82,0,0,1-3.63,0,1.55,1.55,0,0,1,.07-.48,2.83,2.83,0,0,1-.83.13,2.87,2.87,0,0,1-2.33-1.19,4.68,4.68,0,0,1-2,.46,4.19,4.19,0,0,1-4.35-4,4.18,4.18,0,0,1,4.35-4,4.3,4.3,0,0,1,4.18,2.9h.17A2.89,2.89,0,0,1,97.61,26h.06A1.82,1.82,0,0,1,99.49,27.81Z"/></g><path class="cls-5" d="M118.87,43.75V55.17l-17.21-8.29-16.53,8V43.75a1.69,1.69,0,0,1,1.69-1.69h30.36A1.69,1.69,0,0,1,118.87,43.75Z"/><path class="cls-5" d="M76.18,61.34,101.66,49l26.16,12.39-8.26,24a38.47,38.47,0,0,1-8.26-1.38c-7.58-2.06-20.3-5.67-27.55-.55Z"/><path class="cls-5" d="M112,38.85V40H92V38.85a1.61,1.61,0,0,1,1.61-1.61h4.29l1-6.89h6.2l.69,6.89h4.58A1.62,1.62,0,0,1,112,38.85Z"/><path class="cls-5" d="M102.69,26.75a1.81,1.81,0,0,1-3.62,0,1.57,1.57,0,0,1,.07-.49,2.63,2.63,0,0,1-.84.13A2.86,2.86,0,0,1,96,25.2a4.68,4.68,0,0,1-2,.46,4.18,4.18,0,0,1-4.35-4,4.17,4.17,0,0,1,4.35-4,4.3,4.3,0,0,1,4.18,2.91h.16a2.89,2.89,0,0,1,2.9,2.9,2.8,2.8,0,0,1-.39,1.44h.07A1.82,1.82,0,0,1,102.69,26.75Z"/></g></g></svg>