<svg xmlns="http://www.w3.org/2000/svg" viewBox="0 0 184 104"><defs><style>.cls-1{fill:#211915;}</style></defs><title>plane</title><g id="paleta_de_coloresv" data-name="paleta de coloresv"><path class="cls-1" d="M16,51.69S20.11,49,22.85,49s27.4,9.59,28.77,9.59,89-42.47,91.79-43.84,21.58-3.32,26,4.11c6.16,10.28-41.11,28.77-41.11,28.77L110.42,98.34l-10.18,5.9a1.73,1.73,0,0,1-2.59-1.62c.86-11.81-.34-36.75-1.5-37.91-1.37-1.37-43.16,14.38-50,14.38S16,53.06,16,53.06"/><path class="cls-1" d="M52.2,22.14,59.58,18a6.22,6.22,0,0,1,4.85-.5L97.52,27.72,72.86,40.05,52,25.34A1.9,1.9,0,0,1,52.2,22.14Z"/></g></svg>