<svg xmlns="http://www.w3.org/2000/svg" viewBox="0 0 184 104"><defs><style>.cls-1{fill:#211915;}</style></defs><title>terrestre</title><g id="paleta_de_coloresv" data-name="paleta de coloresv"><path class="cls-1" d="M149.18,45.47c-1.94-7.74-11.29-5.48-11-5.8s-10.65-27.75-10.65-27.75c-5.31-6.83-25.34-7.91-33.71-8V3.7s-30.64-.65-37.41,8.06c0,0-11,27.42-10.65,27.75s-9-1.94-11,5.8C31.92,54.67,41,52.09,41,52.09s-.64,2.9-1,5.16S40,96,40,96s.33,4.19,4.2,4.19H60.63a5.71,5.71,0,0,0,3.22-5.48,39.2,39.2,0,0,1,0-6.78h26.3v.16h30a39.2,39.2,0,0,1,0,6.78,5.71,5.71,0,0,0,3.22,5.48h16.45c3.87,0,4.2-4.19,4.2-4.19s.32-36.45,0-38.71-1-5.16-1-5.16S152.08,54.83,149.18,45.47ZM67.16,70c-3.24,1.67-11.33.5-14.89,0-6.33-.88-6.55-4.32-6.32-10C47.53,50.65,77,64.91,67.16,70ZM54.66,41.28s5.16-17.42,5.81-18.71,1.29-5.16,6.13-7.42c3.6-1.68,17-2.11,23.55-2.22v.12s22.41,0,27.25,2.26,5.49,6.13,6.13,7.42,5.81,18.71,5.81,18.71-20,4.41-35.49,4.82v-.14C78.05,46.44,54.66,41.28,54.66,41.28Zm77.07,28.87c-3.56.5-11.65,1.67-14.89,0-9.82-5.08,19.63-19.33,21.21-10C138.28,65.83,138.06,69.27,131.73,70.15Z"/></g></svg>